<svg width="94" height="94" viewBox="0 0 94 94" fill="none" xmlns="http://www.w3.org/2000/svg">
<g id="dots">
<g id="Ellipse 4">
<circle id="Ellipse 4_2" cx="2" cy="2" r="2" fill="black"/>
</g>
<g id="Ellipse 33">
<circle id="Ellipse 4_3" cx="2" cy="32" r="2" fill="black"/>
</g>
<g id="Ellipse 63">
<circle id="Ellipse 4_4" cx="2" cy="62" r="2" fill="black"/>
</g>
<g id="Ellipse 13">
<circle id="Ellipse 4_5" cx="2" cy="12" r="2" fill="black"/>
</g>
<g id="Ellipse 34">
<circle id="Ellipse 4_6" cx="2" cy="42" r="2" fill="black"/>
</g>
<g id="Ellipse 64">
<circle id="Ellipse 4_7" cx="2" cy="72" r="2" fill="black"/>
</g>
<g id="Ellipse 23">
<circle id="Ellipse 4_8" cx="2" cy="22" r="2" fill="black"/>
</g>
<g id="Ellipse 35">
<circle id="Ellipse 4_9" cx="2" cy="52" r="2" fill="black"/>
</g>
<g id="Ellipse 65">
<circle id="Ellipse 4_10" cx="2" cy="82" r="2" fill="black"/>
</g>
<g id="Ellipse 93">
<circle id="Ellipse 4_11" cx="2" cy="92" r="2" fill="black"/>
</g>
<g id="Ellipse 4_12">
<circle id="Ellipse 4_13" cx="12" cy="2" r="2" fill="black"/>
</g>
<g id="Ellipse 36">
<circle id="Ellipse 4_14" cx="12" cy="32" r="2" fill="black"/>
</g>
<g id="Ellipse 66">
<circle id="Ellipse 4_15" cx="12" cy="62" r="2" fill="black"/>
</g>
<g id="Ellipse 14">
<circle id="Ellipse 4_16" cx="12" cy="12" r="2" fill="black"/>
</g>
<g id="Ellipse 37">
<circle id="Ellipse 4_17" cx="12" cy="42" r="2" fill="black"/>
</g>
<g id="Ellipse 67">
<circle id="Ellipse 4_18" cx="12" cy="72" r="2" fill="black"/>
</g>
<g id="Ellipse 24">
<circle id="Ellipse 4_19" cx="12" cy="22" r="2" fill="black"/>
</g>
<g id="Ellipse 38">
<circle id="Ellipse 4_20" cx="12" cy="52" r="2" fill="black"/>
</g>
<g id="Ellipse 68">
<circle id="Ellipse 4_21" cx="12" cy="82" r="2" fill="black"/>
</g>
<g id="Ellipse 94">
<circle id="Ellipse 4_22" cx="12" cy="92" r="2" fill="black"/>
</g>
<g id="Ellipse 5">
<circle id="Ellipse 4_23" cx="22" cy="2" r="2" fill="black"/>
</g>
<g id="Ellipse 39">
<circle id="Ellipse 4_24" cx="22" cy="32" r="2" fill="black"/>
</g>
<g id="Ellipse 69">
<circle id="Ellipse 4_25" cx="22" cy="62" r="2" fill="black"/>
</g>
<g id="Ellipse 15">
<circle id="Ellipse 4_26" cx="22" cy="12" r="2" fill="black"/>
</g>
<g id="Ellipse 40">
<circle id="Ellipse 4_27" cx="22" cy="42" r="2" fill="black"/>
</g>
<g id="Ellipse 70">
<circle id="Ellipse 4_28" cx="22" cy="72" r="2" fill="black"/>
</g>
<g id="Ellipse 25">
<circle id="Ellipse 4_29" cx="22" cy="22" r="2" fill="black"/>
</g>
<g id="Ellipse 41">
<circle id="Ellipse 4_30" cx="22" cy="52" r="2" fill="black"/>
</g>
<g id="Ellipse 71">
<circle id="Ellipse 4_31" cx="22" cy="82" r="2" fill="black"/>
</g>
<g id="Ellipse 95">
<circle id="Ellipse 4_32" cx="22" cy="92" r="2" fill="black"/>
</g>
<g id="Ellipse 6">
<circle id="Ellipse 4_33" cx="32" cy="2" r="2" fill="black"/>
</g>
<g id="Ellipse 42">
<circle id="Ellipse 4_34" cx="32" cy="32" r="2" fill="black"/>
</g>
<g id="Ellipse 72">
<circle id="Ellipse 4_35" cx="32" cy="62" r="2" fill="black"/>
</g>
<g id="Ellipse 16">
<circle id="Ellipse 4_36" cx="32" cy="12" r="2" fill="black"/>
</g>
<g id="Ellipse 43">
<circle id="Ellipse 4_37" cx="32" cy="42" r="2" fill="black"/>
</g>
<g id="Ellipse 73">
<circle id="Ellipse 4_38" cx="32" cy="72" r="2" fill="black"/>
</g>
<g id="Ellipse 26">
<circle id="Ellipse 4_39" cx="32" cy="22" r="2" fill="black"/>
</g>
<g id="Ellipse 44">
<circle id="Ellipse 4_40" cx="32" cy="52" r="2" fill="black"/>
</g>
<g id="Ellipse 74">
<circle id="Ellipse 4_41" cx="32" cy="82" r="2" fill="black"/>
</g>
<g id="Ellipse 96">
<circle id="Ellipse 4_42" cx="32" cy="92" r="2" fill="black"/>
</g>
<g id="Ellipse 7">
<circle id="Ellipse 4_43" cx="42" cy="2" r="2" fill="black"/>
</g>
<g id="Ellipse 45">
<circle id="Ellipse 4_44" cx="42" cy="32" r="2" fill="black"/>
</g>
<g id="Ellipse 75">
<circle id="Ellipse 4_45" cx="42" cy="62" r="2" fill="black"/>
</g>
<g id="Ellipse 17">
<circle id="Ellipse 4_46" cx="42" cy="12" r="2" fill="black"/>
</g>
<g id="Ellipse 46">
<circle id="Ellipse 4_47" cx="42" cy="42" r="2" fill="black"/>
</g>
<g id="Ellipse 76">
<circle id="Ellipse 4_48" cx="42" cy="72" r="2" fill="black"/>
</g>
<g id="Ellipse 27">
<circle id="Ellipse 4_49" cx="42" cy="22" r="2" fill="black"/>
</g>
<g id="Ellipse 47">
<circle id="Ellipse 4_50" cx="42" cy="52" r="2" fill="black"/>
</g>
<g id="Ellipse 77">
<circle id="Ellipse 4_51" cx="42" cy="82" r="2" fill="black"/>
</g>
<g id="Ellipse 97">
<circle id="Ellipse 4_52" cx="42" cy="92" r="2" fill="black"/>
</g>
<g id="Ellipse 8">
<circle id="Ellipse 4_53" cx="52" cy="2" r="2" fill="black"/>
</g>
<g id="Ellipse 48">
<circle id="Ellipse 4_54" cx="52" cy="32" r="2" fill="black"/>
</g>
<g id="Ellipse 78">
<circle id="Ellipse 4_55" cx="52" cy="62" r="2" fill="black"/>
</g>
<g id="Ellipse 18">
<circle id="Ellipse 4_56" cx="52" cy="12" r="2" fill="black"/>
</g>
<g id="Ellipse 49">
<circle id="Ellipse 4_57" cx="52" cy="42" r="2" fill="black"/>
</g>
<g id="Ellipse 79">
<circle id="Ellipse 4_58" cx="52" cy="72" r="2" fill="black"/>
</g>
<g id="Ellipse 28">
<circle id="Ellipse 4_59" cx="52" cy="22" r="2" fill="black"/>
</g>
<g id="Ellipse 50">
<circle id="Ellipse 4_60" cx="52" cy="52" r="2" fill="black"/>
</g>
<g id="Ellipse 80">
<circle id="Ellipse 4_61" cx="52" cy="82" r="2" fill="black"/>
</g>
<g id="Ellipse 98">
<circle id="Ellipse 4_62" cx="52" cy="92" r="2" fill="black"/>
</g>
<g id="Ellipse 9">
<circle id="Ellipse 4_63" cx="62" cy="2" r="2" fill="black"/>
</g>
<g id="Ellipse 51">
<circle id="Ellipse 4_64" cx="62" cy="32" r="2" fill="black"/>
</g>
<g id="Ellipse 81">
<circle id="Ellipse 4_65" cx="62" cy="62" r="2" fill="black"/>
</g>
<g id="Ellipse 19">
<circle id="Ellipse 4_66" cx="62" cy="12" r="2" fill="black"/>
</g>
<g id="Ellipse 52">
<circle id="Ellipse 4_67" cx="62" cy="42" r="2" fill="black"/>
</g>
<g id="Ellipse 82">
<circle id="Ellipse 4_68" cx="62" cy="72" r="2" fill="black"/>
</g>
<g id="Ellipse 29">
<circle id="Ellipse 4_69" cx="62" cy="22" r="2" fill="black"/>
</g>
<g id="Ellipse 53">
<circle id="Ellipse 4_70" cx="62" cy="52" r="2" fill="black"/>
</g>
<g id="Ellipse 83">
<circle id="Ellipse 4_71" cx="62" cy="82" r="2" fill="black"/>
</g>
<g id="Ellipse 99">
<circle id="Ellipse 4_72" cx="62" cy="92" r="2" fill="black"/>
</g>
<g id="Ellipse 10">
<circle id="Ellipse 4_73" cx="72" cy="2" r="2" fill="black"/>
</g>
<g id="Ellipse 54">
<circle id="Ellipse 4_74" cx="72" cy="32" r="2" fill="black"/>
</g>
<g id="Ellipse 84">
<circle id="Ellipse 4_75" cx="72" cy="62" r="2" fill="black"/>
</g>
<g id="Ellipse 20">
<circle id="Ellipse 4_76" cx="72" cy="12" r="2" fill="black"/>
</g>
<g id="Ellipse 55">
<circle id="Ellipse 4_77" cx="72" cy="42" r="2" fill="black"/>
</g>
<g id="Ellipse 85">
<circle id="Ellipse 4_78" cx="72" cy="72" r="2" fill="black"/>
</g>
<g id="Ellipse 30">
<circle id="Ellipse 4_79" cx="72" cy="22" r="2" fill="black"/>
</g>
<g id="Ellipse 56">
<circle id="Ellipse 4_80" cx="72" cy="52" r="2" fill="black"/>
</g>
<g id="Ellipse 86">
<circle id="Ellipse 4_81" cx="72" cy="82" r="2" fill="black"/>
</g>
<g id="Ellipse 100">
<circle id="Ellipse 4_82" cx="72" cy="92" r="2" fill="black"/>
</g>
<g id="Ellipse 11">
<circle id="Ellipse 4_83" cx="82" cy="2" r="2" fill="black"/>
</g>
<g id="Ellipse 57">
<circle id="Ellipse 4_84" cx="82" cy="32" r="2" fill="black"/>
</g>
<g id="Ellipse 87">
<circle id="Ellipse 4_85" cx="82" cy="62" r="2" fill="black"/>
</g>
<g id="Ellipse 21">
<circle id="Ellipse 4_86" cx="82" cy="12" r="2" fill="black"/>
</g>
<g id="Ellipse 58">
<circle id="Ellipse 4_87" cx="82" cy="42" r="2" fill="black"/>
</g>
<g id="Ellipse 88">
<circle id="Ellipse 4_88" cx="82" cy="72" r="2" fill="black"/>
</g>
<g id="Ellipse 31">
<circle id="Ellipse 4_89" cx="82" cy="22" r="2" fill="black"/>
</g>
<g id="Ellipse 59">
<circle id="Ellipse 4_90" cx="82" cy="52" r="2" fill="black"/>
</g>
<g id="Ellipse 89">
<circle id="Ellipse 4_91" cx="82" cy="82" r="2" fill="black"/>
</g>
<g id="Ellipse 101">
<circle id="Ellipse 4_92" cx="82" cy="92" r="2" fill="black"/>
</g>
<g id="Ellipse 12">
<circle id="Ellipse 4_93" cx="92" cy="2" r="2" fill="black"/>
</g>
<g id="Ellipse 60">
<circle id="Ellipse 4_94" cx="92" cy="32" r="2" fill="black"/>
</g>
<g id="Ellipse 90">
<circle id="Ellipse 4_95" cx="92" cy="62" r="2" fill="black"/>
</g>
<g id="Ellipse 22">
<circle id="Ellipse 4_96" cx="92" cy="12" r="2" fill="black"/>
</g>
<g id="Ellipse 61">
<circle id="Ellipse 4_97" cx="92" cy="42" r="2" fill="black"/>
</g>
<g id="Ellipse 91">
<circle id="Ellipse 4_98" cx="92" cy="72" r="2" fill="black"/>
</g>
<g id="Ellipse 32">
<circle id="Ellipse 4_99" cx="92" cy="22" r="2" fill="black"/>
</g>
<g id="Ellipse 62">
<circle id="Ellipse 4_100" cx="92" cy="52" r="2" fill="black"/>
</g>
<g id="Ellipse 92">
<circle id="Ellipse 4_101" cx="92" cy="82" r="2" fill="black"/>
</g>
<g id="Ellipse 102">
<circle id="Ellipse 4_102" cx="92" cy="92" r="2" fill="black"/>
</g>
</g>
</svg>
